Adsworth-72PT G XT1.ufo
<glyph name="exclam" format="2">
  <advance width="652"/>
  <unicode hex="0021"/>
  <outline>
    <contour>
      <point x="281" y="362" type="line"/>
      <point x="281" y="1500" type="line"/>
      <point x="371" y="1500" type="line"/>
      <point x="371" y="362" type="line"/>
    </contour>
    <contour>
      <point x="325" y="-9.0" type="line" smooth="yes"/>
      <point x="361.0" y="-9.0"/>
      <point x="403" y="33"/>
      <point x="403" y="67" type="qcurve" smooth="yes"/>
      <point x="403" y="73" type="line" smooth="yes"/>
      <point x="403" y="107"/>
      <point x="362" y="150"/>
      <point x="325" y="150" type="qcurve" smooth="yes"/>
      <point x="324" y="150" type="line" smooth="yes"/>
      <point x="289" y="150"/>
      <point x="249" y="107"/>
      <point x="249" y="73" type="qcurve" smooth="yes"/>
      <point x="249" y="67" type="line" smooth="yes"/>
      <point x="249" y="32"/>
      <point x="289" y="-9.0"/>
      <point x="324" y="-9.0" type="qcurve" smooth="yes"/>
    </contour>
  </outline>
</glyph>
<glyph name="ampersand" format="2">
  <advance width="1466"/>
  <unicode hex="0026"/>
  <outline>
    <contour>
      <point x="936" y="681" type="line"/>
      <point x="1521" y="859" type="line"/>
      <point x="1537" y="779" type="line"/>
      <point x="954" y="600" type="line"/>
    </contour>
    <contour>
      <point x="731" y="750" type="line"/>
      <point x="536" y="750" type="line" smooth="yes"/>
      <point x="316" y="750"/>
      <point x="116" y="579"/>
      <point x="116" y="442" type="qcurve" smooth="yes"/>
      <point x="116" y="429" type="line" smooth="yes"/>
      <point x="116" y="281"/>
      <point x="367.0" y="79"/>
      <point x="654" y="79" type="qcurve" smooth="yes"/>
      <point x="665" y="79" type="line" smooth="yes"/>
      <point x="954" y="79.0"/>
      <point x="1248.0" y="332.0"/>
      <point x="1248" y="494" type="qcurve" smooth="yes"/>
      <point x="1248.0" y="509.0" type="line" smooth="yes"/>
      <point x="1248" y="559"/>
      <point x="1223" y="661"/>
      <point x="1218" y="681" type="qcurve"/>
      <point x="1301" y="727" type="line"/>
      <point x="1308" y="700"/>
      <point x="1339" y="571"/>
      <point x="1339.0" y="513.0" type="qcurve" smooth="yes"/>
      <point x="1339" y="491" type="line" smooth="yes"/>
      <point x="1339.0" y="286"/>
      <point x="992" y="-20"/>
      <point x="674" y="-22" type="qcurve" smooth="yes"/>
      <point x="654" y="-22.0" type="line" smooth="yes"/>
      <point x="333.0" y="-20"/>
      <point x="20" y="222.0"/>
      <point x="20.0" y="405" type="qcurve" smooth="yes"/>
      <point x="20" y="424" type="line" smooth="yes"/>
      <point x="20" y="575.0"/>
      <point x="174" y="762"/>
      <point x="344" y="801" type="qcurve"/>
      <point x="244" y="855"/>
      <point x="155" y="1013"/>
      <point x="155" y="1112" type="qcurve" smooth="yes"/>
      <point x="155" y="1127" type="line" smooth="yes"/>
      <point x="155" y="1294"/>
      <point x="392" y="1512"/>
      <point x="550" y="1512" type="qcurve" smooth="yes"/>
      <point x="556" y="1512" type="line" smooth="yes"/>
      <point x="727" y="1512"/>
      <point x="959.0" y="1315"/>
      <point x="959" y="1138" type="qcurve" smooth="yes"/>
      <point x="959" y="1103" type="line"/>
      <point x="856" y="1098" type="line"/>
      <point x="856" y="1129" type="line" smooth="yes"/>
      <point x="856" y="1260"/>
      <point x="699" y="1420"/>
      <point x="555" y="1420" type="qcurve" smooth="yes"/>
      <point x="551" y="1420" type="line" smooth="yes"/>
      <point x="417" y="1420"/>
      <point x="251" y="1256"/>
      <point x="251" y="1119" type="qcurve" smooth="yes"/>
      <point x="251" y="1113" type="line" smooth="yes"/>
      <point x="251" y="965"/>
      <point x="430" y="837"/>
      <point x="547" y="837" type="qcurve" smooth="yes"/>
      <point x="750" y="837" type="line"/>
    </contour>
  </outline>
</glyph>
<glyph name="parenleft" format="2">
  <advance width="858"/>
  <unicode hex="0028"/>
  <outline>
    <contour>
      <point x="804" y="-311" type="line"/>
      <point x="102" y="49.0"/>
      <point x="102" y="1144.0"/>
      <point x="799" y="1525" type="qcurve"/>
      <point x="819" y="1403" type="line"/>
      <point x="151" y="1029.0"/>
      <point x="196" y="136.0"/>
      <point x="827" y="-190" type="qcurve"/>
    </contour>
  </outline>
</glyph>
<glyph name="parenright" format="2">
  <advance width="858"/>
  <unicode hex="0029"/>
  <outline>
    <contour>
      <point x="54" y="-311" type="qcurve"/>
      <point x="31" y="-190" type="line"/>
      <point x="662" y="136"/>
      <point x="707" y="1029"/>
      <point x="39" y="1403" type="qcurve"/>
      <point x="59" y="1525" type="line"/>
      <point x="756" y="1144"/>
      <point x="756" y="49"/>
    </contour>
  </outline>
</glyph>
<glyph name="asterisk" format="2">
  <advance width="1140"/>
  <unicode hex="002A"/>
  <outline>
    <contour>
      <point x="588" y="1058" type="line"/>
      <point x="326" y="730" type="line"/>
      <point x="241" y="791" type="line"/>
      <point x="526" y="1098" type="line"/>
      <point x="149" y="1197" type="line"/>
      <point x="179" y="1300" type="line"/>
      <point x="546" y="1176" type="line"/>
      <point x="544" y="1580" type="line"/>
      <point x="636" y="1580" type="line"/>
      <point x="633" y="1176" type="line"/>
      <point x="961" y="1300" type="line"/>
      <point x="991" y="1197" type="line"/>
      <point x="654" y="1098" type="line"/>
      <point x="938" y="799" type="line"/>
      <point x="853" y="738" type="line"/>
    </contour>
  </outline>
</glyph>
<glyph name="plus" format="2">
  <advance width="1420"/>
  <unicode hex="002B"/>
  <outline>
    <contour>
      <point x="1394" y="732" type="line"/>
      <point x="34" y="732" type="line"/>
      <point x="34" y="817" type="line"/>
      <point x="1394" y="817" type="line"/>
    </contour>
    <contour>
      <point x="761.0" y="1392.0" type="line"/>
      <point x="761.0" y="132.0" type="line"/>
      <point x="668.0" y="132.0" type="line"/>
      <point x="668.0" y="1392.0" type="line"/>
    </contour>
  </outline>
</glyph>
<glyph name="four" format="2">
  <advance width="1356"/>
  <unicode hex="0034"/>
  <outline>
    <contour>
      <point x="929" y="0" type="line"/>
      <point x="929" y="1500" type="line"/>
      <point x="1019" y="1497" type="line"/>
      <point x="1019" y="2" type="line"/>
    </contour>
    <contour>
      <point x="1335" y="503" type="line"/>
      <point x="1335" y="418" type="line"/>
      <point x="16" y="418" type="line"/>
      <point x="0" y="520" type="line"/>
      <point x="930" y="1500" type="line"/>
      <point x="1007" y="1452" type="line"/>
      <point x="118" y="505" type="line"/>
    </contour>
  </outline>
</glyph>
<glyph name="seven" format="2">
  <advance width="1203"/>
  <unicode hex="0037"/>
  <outline>
    <contour>
      <point x="12" y="1500" type="line"/>
      <point x="1173" y="1500" type="line"/>
      <point x="1180" y="1466" type="line"/>
      <point x="388" y="0" type="line"/>
      <point x="290" y="0" type="line"/>
      <point x="1059" y="1418" type="line"/>
      <point x="12" y="1418" type="line"/>
    </contour>
  </outline>
</glyph>
<glyph name="eight" format="2">
  <advance width="1434"/>
  <unicode hex="0038"/>
  <outline>
    <contour>
      <point x="710" y="-26" type="line" smooth="yes"/>
      <point x="436" y="-26"/>
      <point x="36" y="217"/>
      <point x="36" y="427" type="qcurve" smooth="yes"/>
      <point x="36" y="424" type="line" smooth="yes"/>
      <point x="36" y="611"/>
      <point x="428" y="855"/>
      <point x="700" y="855" type="qcurve" smooth="yes"/>
      <point x="711" y="855" type="line" smooth="yes"/>
      <point x="992" y="855"/>
      <point x="1398" y="611"/>
      <point x="1398" y="424" type="qcurve" smooth="yes"/>
      <point x="1398" y="429" type="line" smooth="yes"/>
      <point x="1398" y="217"/>
      <point x="1001" y="-26"/>
      <point x="719" y="-26" type="qcurve" smooth="yes"/>
    </contour>
    <contour>
      <point x="720" y="57" type="line" smooth="yes"/>
      <point x="993" y="57"/>
      <point x="1311" y="246"/>
      <point x="1311" y="404" type="qcurve" smooth="yes"/>
      <point x="1311" y="428" type="line" smooth="yes"/>
      <point x="1311" y="584"/>
      <point x="991" y="782"/>
      <point x="712" y="782" type="qcurve" smooth="yes"/>
      <point x="706" y="782.0" type="line" smooth="yes"/>
      <point x="436" y="782"/>
      <point x="126" y="584"/>
      <point x="126" y="428" type="qcurve" smooth="yes"/>
      <point x="126" y="404" type="line" smooth="yes"/>
      <point x="126" y="246"/>
      <point x="439" y="57"/>
      <point x="706" y="57" type="qcurve" smooth="yes"/>
    </contour>
    <contour>
      <point x="708" y="783" type="line" smooth="yes"/>
      <point x="478" y="783"/>
      <point x="144" y="977"/>
      <point x="144" y="1136" type="qcurve" smooth="yes"/>
      <point x="144" y="1146" type="line" smooth="yes"/>
      <point x="144" y="1310"/>
      <point x="474" y="1512"/>
      <point x="702" y="1512" type="qcurve" smooth="yes"/>
      <point x="711" y="1512" type="line" smooth="yes"/>
      <point x="947" y="1512"/>
      <point x="1291" y="1310"/>
      <point x="1291" y="1143" type="qcurve" smooth="yes"/>
      <point x="1291" y="1131" type="line" smooth="yes"/>
      <point x="1291" y="977"/>
      <point x="951" y="783"/>
      <point x="714" y="783" type="qcurve" smooth="yes"/>
    </contour>
    <contour>
      <point x="709" y="855" type="line" smooth="yes"/>
      <point x="934" y="855"/>
      <point x="1196" y="1007"/>
      <point x="1196" y="1130" type="qcurve" smooth="yes"/>
      <point x="1196" y="1149" type="line" smooth="yes"/>
      <point x="1196" y="1271"/>
      <point x="940" y="1426"/>
      <point x="709" y="1426" type="qcurve" smooth="yes"/>
      <point x="703" y="1426" type="line" smooth="yes"/>
      <point x="489" y="1426"/>
      <point x="240" y="1271"/>
      <point x="240" y="1149" type="qcurve" smooth="yes"/>
      <point x="240" y="1130" type="line" smooth="yes"/>
      <point x="240" y="1007"/>
      <point x="485" y="855"/>
      <point x="703" y="855" type="qcurve" smooth="yes"/>
    </contour>
  </outline>
</glyph>
<glyph name="nine" format="2">
  <advance width="1385"/>
  <unicode hex="0039"/>
  <outline>
    <contour>
      <point x="1195" y="994" type="qcurve"/>
      <point x="1194" y="1006" type="line" smooth="yes"/>
      <point x="1182" y="1179"/>
      <point x="891" y="1426"/>
      <point x="638" y="1426" type="qcurve" smooth="yes"/>
      <point x="620" y="1426" type="line" smooth="yes"/>
      <point x="385" y="1426"/>
      <point x="145" y="1202"/>
      <point x="145" y="1026" type="qcurve" smooth="yes"/>
      <point x="145" y="1005" type="line" smooth="yes"/>
      <point x="145" y="829.0"/>
      <point x="402.0" y="630.0"/>
      <point x="640" y="630" type="qcurve" smooth="yes"/>
      <point x="652" y="630" type="line" smooth="yes"/>
      <point x="864" y="630"/>
      <point x="1202" y="845"/>
      <point x="1199" y="967" type="qcurve" smooth="yes"/>
      <point x="1201" y="1002" type="line"/>
      <point x="1258" y="1001" type="line"/>
      <point x="1257" y="969" type="line" smooth="yes"/>
      <point x="1241" y="772"/>
      <point x="861" y="553"/>
      <point x="637" y="553" type="qcurve" smooth="yes"/>
      <point x="629" y="553" type="line" smooth="yes"/>
      <point x="327.0" y="553"/>
      <point x="50" y="805"/>
      <point x="50" y="1025" type="qcurve" smooth="yes"/>
      <point x="50" y="1038" type="line" smooth="yes"/>
      <point x="50" y="1244"/>
      <point x="366" y="1512"/>
      <point x="630" y="1512" type="qcurve" smooth="yes"/>
      <point x="644" y="1512" type="line" smooth="yes"/>
      <point x="955" y="1512"/>
      <point x="1280" y="1183"/>
      <point x="1284" y="871" type="qcurve" smooth="yes"/>
      <point x="1285" y="898" type="line" smooth="yes"/>
      <point x="1291.0" y="538.0"/>
      <point x="688" y="-4"/>
      <point x="302" y="-13" type="qcurve" smooth="yes"/>
      <point x="227" y="-13" type="line"/>
      <point x="227" y="82" type="line"/>
      <point x="276" y="82" type="line" smooth="yes"/>
      <point x="646" y="82"/>
      <point x="1231" y="585"/>
    </contour>
  </outline>
</glyph>
<glyph name="colon" format="2">
  <advance width="920"/>
  <unicode hex="003A"/>
  <outline>
    <contour>
      <point x="458" y="-9" type="line" smooth="yes"/>
      <point x="499" y="-9"/>
      <point x="544" y="37"/>
      <point x="544" y="74" type="qcurve" smooth="yes"/>
      <point x="544" y="80" type="line" smooth="yes"/>
      <point x="544" y="117"/>
      <point x="500" y="164"/>
      <point x="458" y="164" type="qcurve" smooth="yes"/>
      <point x="457" y="164" type="line" smooth="yes"/>
      <point x="418" y="164"/>
      <point x="375" y="117"/>
      <point x="375" y="80" type="qcurve" smooth="yes"/>
      <point x="375" y="74" type="line" smooth="yes"/>
      <point x="375" y="37"/>
      <point x="417" y="-9"/>
      <point x="457" y="-9" type="qcurve" smooth="yes"/>
    </contour>
    <contour>
      <point x="458" y="791" type="line" smooth="yes"/>
      <point x="499" y="791"/>
      <point x="544" y="837"/>
      <point x="544" y="874" type="qcurve" smooth="yes"/>
      <point x="544" y="880" type="line" smooth="yes"/>
      <point x="544" y="917"/>
      <point x="500" y="964"/>
      <point x="458" y="964" type="qcurve" smooth="yes"/>
      <point x="457" y="964" type="line" smooth="yes"/>
      <point x="418" y="964"/>
      <point x="375" y="917"/>
      <point x="375" y="880" type="qcurve" smooth="yes"/>
      <point x="375" y="874" type="line" smooth="yes"/>
      <point x="375" y="837"/>
      <point x="417" y="791"/>
      <point x="457" y="791" type="qcurve" smooth="yes"/>
    </contour>
  </outline>
</glyph>
<glyph name="semicolon" format="2">
  <advance width="847"/>
  <unicode hex="003B"/>
  <outline>
    <contour>
      <point x="430" y="791.0" type="line" smooth="yes"/>
      <point x="471" y="791.0"/>
      <point x="516" y="837"/>
      <point x="516" y="874" type="qcurve" smooth="yes"/>
      <point x="516" y="880" type="line" smooth="yes"/>
      <point x="516" y="917"/>
      <point x="472" y="964"/>
      <point x="430" y="964" type="qcurve" smooth="yes"/>
      <point x="429" y="964" type="line" smooth="yes"/>
      <point x="390" y="964"/>
      <point x="347" y="917"/>
      <point x="347" y="880" type="qcurve" smooth="yes"/>
      <point x="347" y="874" type="line" smooth="yes"/>
      <point x="347" y="837"/>
      <point x="389" y="791.0"/>
      <point x="429" y="791.0" type="qcurve" smooth="yes"/>
    </contour>
    <contour>
      <point x="187" y="-90" type="line"/>
      <point x="345" y="129" type="line" smooth="yes"/>
      <point x="361" y="148"/>
      <point x="404" y="182.0"/>
      <point x="426" y="182" type="qcurve" smooth="yes"/>
      <point x="431" y="182.0" type="line" smooth="yes"/>
      <point x="467.0" y="182.0"/>
      <point x="520.0" y="132.0"/>
      <point x="520" y="106.0" type="qcurve" smooth="yes"/>
      <point x="520.0" y="101" type="line" smooth="yes"/>
      <point x="520.0" y="72.0"/>
      <point x="280" y="-87"/>
      <point x="223" y="-133" type="qcurve"/>
    </contour>
  </outline>
</glyph>
<glyph name="at" format="2">
  <advance width="2038"/>
  <unicode hex="0040"/>
  <outline>
    <contour>
      <point x="1302" y="741" type="qcurve" smooth="yes"/>
      <point x="1297" y="712" type="line" smooth="yes"/>
      <point x="1265" y="525"/>
      <point x="1063" y="301"/>
      <point x="897" y="301" type="qcurve" smooth="yes"/>
      <point x="891" y="301" type="line" smooth="yes"/>
      <point x="695.0" y="301"/>
      <point x="498" y="570"/>
      <point x="540" y="771" type="qcurve" smooth="yes"/>
      <point x="546" y="800" type="line" smooth="yes"/>
      <point x="581" y="969"/>
      <point x="831.0" y="1171.0"/>
      <point x="1009" y="1171" type="qcurve" smooth="yes"/>
      <point x="1016" y="1171" type="line" smooth="yes"/>
      <point x="1156.0" y="1171.0"/>
      <point x="1334" y="927"/>
    </contour>
    <contour>
      <point x="1263" y="732" type="line" smooth="yes"/>
      <point x="1290" y="869"/>
      <point x="1133.0" y="1098.0"/>
      <point x="1005" y="1098" type="qcurve" smooth="yes"/>
      <point x="999" y="1098" type="line" smooth="yes"/>
      <point x="866" y="1098.0"/>
      <point x="648" y="911"/>
      <point x="622" y="782" type="qcurve" smooth="yes"/>
      <point x="618" y="762" type="line" smooth="yes"/>
      <point x="585" y="598"/>
      <point x="736.0" y="361"/>
      <point x="908" y="361" type="qcurve" smooth="yes"/>
      <point x="914" y="361" type="line" smooth="yes"/>
      <point x="1044" y="361"/>
      <point x="1232" y="576"/>
      <point x="1259" y="712" type="qcurve" smooth="yes"/>
    </contour>
    <contour>
      <point x="1218" y="495" type="qcurve" smooth="yes"/>
      <point x="1328" y="1125" type="line"/>
      <point x="1403" y="1125" type="line"/>
      <point x="1300" y="555" type="line" smooth="yes"/>
      <point x="1286" y="475"/>
      <point x="1339" y="381"/>
      <point x="1432" y="381" type="qcurve" smooth="yes"/>
      <point x="1606" y="381"/>
      <point x="1857" y="629"/>
      <point x="1857.0" y="806.0" type="qcurve" smooth="yes"/>
      <point x="1857" y="1078"/>
      <point x="1431" y="1464.0"/>
      <point x="1039" y="1464.0" type="qcurve" smooth="yes"/>
      <point x="655" y="1464.0"/>
      <point x="178" y="1046.0"/>
      <point x="178" y="713.0" type="qcurve" smooth="yes"/>
      <point x="178" y="355.0"/>
      <point x="648" y="-44"/>
      <point x="1019" y="-44.0" type="qcurve" smooth="yes"/>
      <point x="1299" y="-44.0"/>
      <point x="1638" y="88.0"/>
      <point x="1699" y="144.0" type="qcurve"/>
      <point x="1738" y="98" type="line"/>
      <point x="1671" y="33"/>
      <point x="1330" y="-102.0"/>
      <point x="1017" y="-102" type="qcurve" smooth="yes"/>
      <point x="622" y="-102"/>
      <point x="100" y="322"/>
      <point x="100" y="715" type="qcurve" smooth="yes"/>
      <point x="100" y="1077"/>
      <point x="631" y="1524"/>
      <point x="1040" y="1524" type="qcurve" smooth="yes"/>
      <point x="1447" y="1524"/>
      <point x="1931.0" y="1117.0"/>
      <point x="1931.0" y="806.0" type="qcurve" smooth="yes"/>
      <point x="1931" y="603"/>
      <point x="1648" y="319"/>
      <point x="1427" y="319" type="qcurve" smooth="yes"/>
      <point x="1329" y="319"/>
      <point x="1218" y="424"/>
    </contour>
  </outline>
</glyph>
<glyph name="A" format="2">
  <advance width="1590"/>
  <unicode hex="0041"/>
  <outline>
    <contour>
      <point x="1320" y="478" type="line"/>
      <point x="260" y="478" type="line"/>
      <point x="260" y="567" type="line"/>
      <point x="1320" y="567" type="line"/>
    </contour>
    <contour>
      <point x="830" y="1504" type="line"/>
      <point x="1620" y="0" type="line"/>
      <point x="1521" y="0" type="line"/>
      <point x="793" y="1387" type="line"/>
      <point x="786" y="1387" type="line"/>
      <point x="72" y="0" type="line"/>
      <point x="-30" y="0" type="line"/>
      <point x="750" y="1504" type="line"/>
    </contour>
  </outline>
</glyph>
<glyph name="B" format="2">
  <advance width="1692"/>
  <unicode hex="0042"/>
  <outline>
    <contour>
      <point x="231" y="0" type="line"/>
      <point x="231" y="1500" type="line"/>
      <point x="322" y="1500" type="line"/>
      <point x="322" y="0" type="line"/>
    </contour>
    <contour>
      <point x="1100" y="836" type="line"/>
      <point x="1352" y="836"/>
      <point x="1613" y="628"/>
      <point x="1613.0" y="428" type="qcurve" smooth="yes"/>
      <point x="1613.0" y="418" type="line" smooth="yes"/>
      <point x="1613" y="222"/>
      <point x="1354.0" y="0.0"/>
      <point x="1134" y="0" type="qcurve" smooth="yes"/>
      <point x="279" y="0" type="line"/>
      <point x="279" y="85" type="line"/>
      <point x="1160" y="85" type="line" smooth="yes"/>
      <point x="1312.0" y="85.0"/>
      <point x="1515" y="262"/>
      <point x="1515" y="415" type="qcurve" smooth="yes"/>
      <point x="1515" y="437" type="line" smooth="yes"/>
      <point x="1515" y="586"/>
      <point x="1312.0" y="751.0"/>
      <point x="1170" y="751" type="qcurve" smooth="yes"/>
      <point x="279" y="751" type="line"/>
      <point x="279" y="840" type="line"/>
      <point x="1095" y="840" type="line" smooth="yes"/>
      <point x="1251.0" y="840.0"/>
      <point x="1403" y="975"/>
      <point x="1403.0" y="1110" type="qcurve" smooth="yes"/>
      <point x="1403.0" y="1133" type="line" smooth="yes"/>
      <point x="1403" y="1269"/>
      <point x="1239.0" y="1415.0"/>
      <point x="1105" y="1415" type="qcurve" smooth="yes"/>
      <point x="279" y="1415" type="line"/>
      <point x="279" y="1500" type="line"/>
      <point x="1089" y="1500" type="line" smooth="yes"/>
      <point x="1296.0" y="1500.0"/>
      <point x="1503" y="1298"/>
      <point x="1503.0" y="1133" type="qcurve" smooth="yes"/>
      <point x="1503" y="1122" type="line" smooth="yes"/>
      <point x="1503" y="961"/>
      <point x="1301" y="751"/>
      <point x="1072" y="751" type="qcurve"/>
    </contour>
  </outline>
</glyph>
<glyph name="C" format="2">
  <advance width="1958"/>
  <unicode hex="0043"/>
  <outline>
    <contour>
      <point x="1026" y="63" type="line" smooth="yes"/>
      <point x="1395.0" y="63.0"/>
      <point x="1751" y="304"/>
      <point x="1784" y="572" type="qcurve" smooth="yes"/>
      <point x="1786" y="588" type="line"/>
      <point x="1881" y="585" type="line"/>
      <point x="1879" y="566" type="line" smooth="yes"/>
      <point x="1847" y="261"/>
      <point x="1420.0" y="-29.0"/>
      <point x="1026" y="-29" type="qcurve" smooth="yes"/>
      <point x="1015" y="-29.0" type="line" smooth="yes"/>
      <point x="615.0" y="-29"/>
      <point x="86" y="335.0"/>
      <point x="86" y="731" type="qcurve" smooth="yes"/>
      <point x="86" y="739" type="line" smooth="yes"/>
      <point x="86" y="1126.0"/>
      <point x="618.0" y="1534.0"/>
      <point x="1003" y="1534" type="qcurve" smooth="yes"/>
      <point x="1014" y="1534" type="line" smooth="yes"/>
      <point x="1429" y="1534"/>
      <point x="1849" y="1221"/>
      <point x="1881" y="956" type="qcurve" smooth="yes"/>
      <point x="1884" y="931" type="line"/>
      <point x="1785" y="931" type="line"/>
      <point x="1783" y="948" type="line" smooth="yes"/>
      <point x="1755" y="1176"/>
      <point x="1362" y="1441"/>
      <point x="1024" y="1441" type="qcurve" smooth="yes"/>
      <point x="1013" y="1441" type="line" smooth="yes"/>
      <point x="649.0" y="1441.0"/>
      <point x="183" y="1082.0"/>
      <point x="183" y="744" type="qcurve" smooth="yes"/>
      <point x="183" y="728" type="line" smooth="yes"/>
      <point x="183" y="381.0"/>
      <point x="656.0" y="63"/>
      <point x="1018" y="63.0" type="qcurve" smooth="yes"/>
    </contour>
  </outline>
</glyph>
<glyph name="D" format="2">
  <advance width="1749"/>
  <unicode hex="0044"/>
  <outline>
    <contour>
      <point x="210" y="0" type="line"/>
      <point x="210" y="1500" type="line"/>
      <point x="300" y="1500" type="line"/>
      <point x="300" y="0" type="line"/>
    </contour>
    <contour>
      <point x="932.0" y="93" type="line" smooth="yes"/>
      <point x="1184" y="93"/>
      <point x="1539.0" y="449"/>
      <point x="1539.0" y="742" type="qcurve" smooth="yes"/>
      <point x="1539.0" y="754" type="line" smooth="yes"/>
      <point x="1539.0" y="1049"/>
      <point x="1180" y="1409"/>
      <point x="928.0" y="1410.0" type="qcurve" smooth="yes"/>
      <point x="256" y="1410" type="line"/>
      <point x="256" y="1500" type="line"/>
      <point x="911.0" y="1500" type="line" smooth="yes"/>
      <point x="1221.0" y="1500"/>
      <point x="1633.0" y="1095"/>
      <point x="1633.0" y="736" type="qcurve" smooth="yes"/>
      <point x="1633.0" y="757" type="line" smooth="yes"/>
      <point x="1633.0" y="401"/>
      <point x="1216.0" y="0.0"/>
      <point x="932.0" y="0.0" type="qcurve" smooth="yes"/>
      <point x="256" y="0" type="line"/>
      <point x="256" y="93" type="line"/>
    </contour>
  </outline>
</glyph>
<glyph name="E" format="2">
  <advance width="1531"/>
  <unicode hex="0045"/>
  <outline>
    <contour>
      <point x="231" y="0" type="line"/>
      <point x="231" y="1500" type="line"/>
      <point x="321" y="1500" type="line"/>
      <point x="321" y="0" type="line"/>
    </contour>
    <contour>
      <point x="1351" y="749" type="line"/>
      <point x="272" y="749" type="line"/>
      <point x="272" y="838" type="line"/>
      <point x="1351" y="838" type="line"/>
    </contour>
    <contour>
      <point x="1511" y="1411" type="line"/>
      <point x="272" y="1411" type="line"/>
      <point x="272" y="1500" type="line"/>
      <point x="1511" y="1500" type="line"/>
    </contour>
    <contour>
      <point x="1511" y="0" type="line"/>
      <point x="272" y="0" type="line"/>
      <point x="272" y="89" type="line"/>
      <point x="1511" y="89" type="line"/>
    </contour>
  </outline>
</glyph>
<glyph name="F" format="2">
  <advance width="1466"/>
  <unicode hex="0046"/>
  <outline>
    <contour>
      <point x="231" y="0" type="line"/>
      <point x="231" y="1500" type="line"/>
      <point x="321" y="1500" type="line"/>
      <point x="321" y="0" type="line"/>
    </contour>
    <contour>
      <point x="1281" y="736" type="line"/>
      <point x="271" y="736" type="line"/>
      <point x="271" y="825" type="line"/>
      <point x="1281" y="825" type="line"/>
    </contour>
    <contour>
      <point x="1461" y="1411" type="line"/>
      <point x="271" y="1411" type="line"/>
      <point x="271" y="1500" type="line"/>
      <point x="1461" y="1500" type="line"/>
    </contour>
  </outline>
</glyph>
<glyph name="G" format="2">
  <advance width="1981"/>
  <unicode hex="0047"/>
  <outline>
    <contour>
      <point x="1042" y="62.0" type="line" smooth="yes"/>
      <point x="1421" y="62"/>
      <point x="1797" y="332"/>
      <point x="1817" y="556" type="qcurve" smooth="yes"/>
      <point x="1823" y="613.0" type="line"/>
      <point x="1065" y="613.0" type="line"/>
      <point x="1065" y="695.0" type="line"/>
      <point x="1918" y="695.0" type="line"/>
      <point x="1912.0" y="610" type="line" smooth="yes"/>
      <point x="1890" y="302"/>
      <point x="1425" y="-29"/>
      <point x="1047" y="-29.0" type="qcurve" smooth="yes"/>
      <point x="1034" y="-29.0" type="line" smooth="yes"/>
      <point x="607" y="-29"/>
      <point x="86" y="365"/>
      <point x="86.0" y="717" type="qcurve" smooth="yes"/>
      <point x="86" y="737" type="line" smooth="yes"/>
      <point x="86" y="1121.0"/>
      <point x="616" y="1535"/>
      <point x="1003" y="1535.0" type="qcurve" smooth="yes"/>
      <point x="1017" y="1535.0" type="line" smooth="yes"/>
      <point x="1384" y="1535"/>
      <point x="1843" y="1258"/>
      <point x="1866" y="1036.0" type="qcurve" smooth="yes"/>
      <point x="1870" y="1007.0" type="line"/>
      <point x="1777" y="1007.0" type="line"/>
      <point x="1775" y="1029.0" type="line" smooth="yes"/>
      <point x="1760" y="1199"/>
      <point x="1356" y="1441"/>
      <point x="1019" y="1441.0" type="qcurve" smooth="yes"/>
      <point x="1000" y="1441.0" type="line" smooth="yes"/>
      <point x="660" y="1441"/>
      <point x="179" y="1071.0"/>
      <point x="179" y="747" type="qcurve" smooth="yes"/>
      <point x="179" y="707" type="line" smooth="yes"/>
      <point x="179" y="440"/>
      <point x="621" y="62"/>
      <point x="1033" y="62.0" type="qcurve" smooth="yes"/>
    </contour>
  </outline>
</glyph>
<glyph name="H" format="2">
  <advance width="1942"/>
  <unicode hex="0048"/>
  <outline>
    <contour>
      <point x="231" y="0" type="line"/>
      <point x="231" y="1500" type="line"/>
      <point x="321" y="1500" type="line"/>
      <point x="321" y="0" type="line"/>
    </contour>
    <contour>
      <point x="1621" y="0" type="line"/>
      <point x="1621" y="1500" type="line"/>
      <point x="1711" y="1500" type="line"/>
      <point x="1711" y="0" type="line"/>
    </contour>
    <contour>
      <point x="1671" y="753" type="line"/>
      <point x="271" y="753" type="line"/>
      <point x="271" y="836" type="line"/>
      <point x="1671" y="836" type="line"/>
    </contour>
  </outline>
</glyph>
<glyph name="J" format="2">
  <advance width="1355"/>
  <unicode hex="004A"/>
  <outline>
    <contour>
      <point x="1168.0" y="443.0" type="line" smooth="yes"/>
      <point x="1168.0" y="211"/>
      <point x="850.0" y="-30.0"/>
      <point x="620" y="-30" type="qcurve" smooth="yes"/>
      <point x="594" y="-30.0" type="line" smooth="yes"/>
      <point x="327.0" y="-30"/>
      <point x="11" y="184.0"/>
      <point x="11" y="367" type="qcurve" smooth="yes"/>
      <point x="11" y="420" type="line"/>
      <point x="105" y="420" type="line"/>
      <point x="105" y="357" type="line" smooth="yes"/>
      <point x="105.0" y="223.0"/>
      <point x="368.0" y="54"/>
      <point x="591" y="54.0" type="qcurve" smooth="yes"/>
      <point x="612" y="54" type="line" smooth="yes"/>
      <point x="820.0" y="54.0"/>
      <point x="1078.0" y="253.0"/>
      <point x="1078.0" y="445.0" type="qcurve" smooth="yes"/>
      <point x="1078" y="1500" type="line"/>
      <point x="1168" y="1500" type="line"/>
    </contour>
  </outline>
</glyph>
<glyph name="K" format="2">
  <advance width="1811"/>
  <unicode hex="004B"/>
  <outline>
    <contour>
      <point x="231" y="0" type="line"/>
      <point x="231" y="1500" type="line"/>
      <point x="321" y="1500" type="line"/>
      <point x="321" y="0" type="line"/>
    </contour>
    <contour>
      <point x="836" y="934" type="line"/>
      <point x="909" y="985" type="line"/>
      <point x="1809" y="0" type="line"/>
      <point x="1684" y="0" type="line"/>
    </contour>
    <contour>
      <point x="288" y="585" type="line"/>
      <point x="643" y="847" type="line"/>
      <point x="1524" y="1500" type="line"/>
      <point x="1663" y="1500" type="line"/>
      <point x="912" y="943" type="line"/>
      <point x="872" y="913" type="line"/>
      <point x="288" y="480" type="line"/>
    </contour>
  </outline>
</glyph>
<glyph name="L" format="2">
  <advance width="1450"/>
  <unicode hex="004C"/>
  <outline>
    <contour>
      <point x="231" y="0" type="line"/>
      <point x="231" y="1500" type="line"/>
      <point x="321" y="1500" type="line"/>
      <point x="321" y="0" type="line"/>
    </contour>
    <contour>
      <point x="1420" y="0" type="line"/>
      <point x="281" y="0" type="line"/>
      <point x="281" y="89" type="line"/>
      <point x="1420" y="89" type="line"/>
    </contour>
  </outline>
</glyph>
<glyph name="M" format="2">
  <advance width="2504"/>
  <unicode hex="004D"/>
  <outline>
    <contour>
      <point x="231" y="0" type="line"/>
      <point x="231" y="1500" type="line"/>
      <point x="324" y="1500" type="line"/>
      <point x="1252" y="89" type="line"/>
      <point x="1257" y="84" type="line"/>
      <point x="2181" y="1500" type="line"/>
      <point x="2273" y="1500" type="line"/>
      <point x="2273" y="0" type="line"/>
      <point x="2184" y="0" type="line"/>
      <point x="2184" y="1345" type="line"/>
      <point x="1297" y="0" type="line"/>
      <point x="1207" y="0" type="line"/>
      <point x="319" y="1345" type="line"/>
      <point x="319" y="0" type="line"/>
    </contour>
  </outline>
</glyph>
<glyph name="N" format="2">
  <advance width="1820"/>
  <unicode hex="004E"/>
  <outline>
    <contour>
      <point x="231" y="0" type="line"/>
      <point x="231" y="1500" type="line"/>
      <point x="314" y="1500" type="line"/>
      <point x="1502" y="143" type="line"/>
      <point x="1502" y="1500" type="line"/>
      <point x="1589" y="1500" type="line"/>
      <point x="1589" y="0" type="line"/>
      <point x="1501" y="0" type="line"/>
      <point x="1501" y="7" type="line"/>
      <point x="318" y="1360" type="line"/>
      <point x="318" y="0" type="line"/>
    </contour>
  </outline>
</glyph>
<glyph name="O" format="2">
  <advance width="2102"/>
  <unicode hex="004F"/>
  <outline>
    <contour>
      <point x="1035" y="-29.0" type="line" smooth="yes"/>
      <point x="612.0" y="-29"/>
      <point x="86" y="372"/>
      <point x="86" y="723" type="qcurve" smooth="yes"/>
      <point x="86" y="749" type="line" smooth="yes"/>
      <point x="86" y="1113"/>
      <point x="632.0" y="1534.0"/>
      <point x="1042" y="1534.0" type="qcurve" smooth="yes"/>
      <point x="1053" y="1534.0" type="line" smooth="yes"/>
      <point x="1459.0" y="1534.0"/>
      <point x="2016" y="1107"/>
      <point x="2016" y="756.0" type="qcurve" smooth="yes"/>
      <point x="2016" y="754.0" type="line" smooth="yes"/>
      <point x="2016" y="408"/>
      <point x="1460.0" y="-29.0"/>
      <point x="1046" y="-29.0" type="qcurve" smooth="yes"/>
    </contour>
    <contour>
      <point x="1055.0" y="63" type="line" smooth="yes"/>
      <point x="1423.0" y="63.0"/>
      <point x="1923" y="428"/>
      <point x="1923.0" y="742.0" type="qcurve" smooth="yes"/>
      <point x="1923.0" y="758.0" type="line" smooth="yes"/>
      <point x="1923" y="1075"/>
      <point x="1428.0" y="1442.0"/>
      <point x="1055.0" y="1442.0" type="qcurve" smooth="yes"/>
      <point x="1041.0" y="1442.0" type="line" smooth="yes"/>
      <point x="665.0" y="1442.0"/>
      <point x="178" y="1078"/>
      <point x="178.0" y="755" type="qcurve" smooth="yes"/>
      <point x="178.0" y="749" type="line" smooth="yes"/>
      <point x="178" y="411"/>
      <point x="673.0" y="63"/>
      <point x="1041.0" y="63" type="qcurve" smooth="yes"/>
    </contour>
  </outline>
</glyph>
<glyph name="P" format="2">
  <advance width="1614"/>
  <unicode hex="0050"/>
  <outline>
    <contour>
      <point x="231" y="0" type="line"/>
      <point x="231" y="1500" type="line"/>
      <point x="320" y="1500" type="line"/>
      <point x="320" y="0" type="line"/>
    </contour>
    <contour>
      <point x="1027" y="551" type="qcurve" smooth="yes"/>
      <point x="273" y="551" type="line"/>
      <point x="273" y="635" type="line"/>
      <point x="1043" y="635" type="line" smooth="yes"/>
      <point x="1206.0" y="635.0"/>
      <point x="1468" y="813"/>
      <point x="1468" y="1040" type="qcurve" smooth="yes"/>
      <point x="1468" y="1051" type="line" smooth="yes"/>
      <point x="1468.0" y="1249.0"/>
      <point x="1221.0" y="1416.0"/>
      <point x="1047" y="1416" type="qcurve" smooth="yes"/>
      <point x="273" y="1416" type="line"/>
      <point x="273" y="1500" type="line"/>
      <point x="1051" y="1500" type="line" smooth="yes"/>
      <point x="1270.0" y="1500.0"/>
      <point x="1561.0" y="1289"/>
      <point x="1561" y="1052" type="qcurve" smooth="yes"/>
      <point x="1561" y="1037" type="line" smooth="yes"/>
      <point x="1561" y="785"/>
      <point x="1252.0" y="551.0"/>
    </contour>
  </outline>
</glyph>
<glyph name="Q" format="2">
  <advance width="2102"/>
  <unicode hex="0051"/>
  <outline>
    <contour>
      <point x="1035" y="1.0" type="line" smooth="yes"/>
      <point x="612" y="1"/>
      <point x="86" y="392"/>
      <point x="86" y="733" type="qcurve" smooth="yes"/>
      <point x="86" y="759" type="line" smooth="yes"/>
      <point x="86" y="1113.0"/>
      <point x="632.0" y="1534.0"/>
      <point x="1042" y="1534.0" type="qcurve" smooth="yes"/>
      <point x="1053" y="1534.0" type="line" smooth="yes"/>
      <point x="1459.0" y="1534.0"/>
      <point x="2016.0" y="1107.0"/>
      <point x="2016" y="766.0" type="qcurve" smooth="yes"/>
      <point x="2016" y="764.0" type="line" smooth="yes"/>
      <point x="2016" y="428"/>
      <point x="1460" y="1"/>
      <point x="1046" y="1.0" type="qcurve" smooth="yes"/>
    </contour>
    <contour>
      <point x="1055.0" y="93" type="line" smooth="yes"/>
      <point x="1423" y="93"/>
      <point x="1923" y="448"/>
      <point x="1923.0" y="752.0" type="qcurve" smooth="yes"/>
      <point x="1923.0" y="768.0" type="line" smooth="yes"/>
      <point x="1923.0" y="1075.0"/>
      <point x="1428.0" y="1442.0"/>
      <point x="1055.0" y="1442.0" type="qcurve" smooth="yes"/>
      <point x="1041.0" y="1442.0" type="line" smooth="yes"/>
      <point x="665.0" y="1442.0"/>
      <point x="178" y="1078.0"/>
      <point x="178.0" y="765" type="qcurve" smooth="yes"/>
      <point x="178.0" y="759" type="line" smooth="yes"/>
      <point x="178" y="431"/>
      <point x="673" y="93"/>
      <point x="1041.0" y="93" type="qcurve" smooth="yes"/>
    </contour>
    <contour>
      <point x="1124" y="68" type="line"/>
      <point x="2086" y="53" type="line"/>
      <point x="2086" y="-42" type="line"/>
      <point x="1124" y="8" type="line"/>
    </contour>
  </outline>
</glyph>
<glyph name="R" format="2">
  <advance width="1642"/>
  <unicode hex="0052"/>
  <outline>
    <contour>
      <point x="231" y="0" type="line"/>
      <point x="231" y="1500" type="line"/>
      <point x="321" y="1500" type="line"/>
      <point x="321" y="0" type="line"/>
    </contour>
    <contour>
      <point x="1008" y="667" type="qcurve" smooth="yes"/>
      <point x="281" y="667" type="line"/>
      <point x="281" y="762" type="line"/>
      <point x="1021" y="762" type="line" smooth="yes"/>
      <point x="1226" y="762.0"/>
      <point x="1407.0" y="933.0"/>
      <point x="1407" y="1088" type="qcurve" smooth="yes"/>
      <point x="1407" y="1110" type="line" smooth="yes"/>
      <point x="1407" y="1265"/>
      <point x="1200.0" y="1411.0"/>
      <point x="1002" y="1411" type="qcurve" smooth="yes"/>
      <point x="281" y="1411" type="line"/>
      <point x="281" y="1500" type="line"/>
      <point x="1029" y="1500" type="line" smooth="yes"/>
      <point x="1246.0" y="1500.0"/>
      <point x="1513" y="1301"/>
      <point x="1513" y="1106" type="qcurve" smooth="yes"/>
      <point x="1513" y="1091" type="line" smooth="yes"/>
      <point x="1513" y="878"/>
      <point x="1228.0" y="667.0"/>
    </contour>
    <contour>
      <point x="1130" y="751" type="line"/>
      <point x="1627" y="0" type="line"/>
      <point x="1512" y="0" type="line"/>
      <point x="1053" y="701" type="line"/>
    </contour>
  </outline>
</glyph>
<glyph name="S" format="2">
  <advance width="1683"/>
  <unicode hex="0053"/>
  <outline>
    <contour>
      <point x="1374.0" y="410.0" type="line" smooth="yes"/>
      <point x="1374.0" y="536.0"/>
      <point x="1134" y="724"/>
      <point x="761" y="765" type="qcurve" smooth="yes"/>
      <point x="361" y="807"/>
      <point x="120" y="994.0"/>
      <point x="120" y="1143" type="qcurve" smooth="yes"/>
      <point x="120" y="1153" type="line" smooth="yes"/>
      <point x="120" y="1308.0"/>
      <point x="415.0" y="1513.0"/>
      <point x="753" y="1513" type="qcurve" smooth="yes"/>
      <point x="764" y="1513" type="line" smooth="yes"/>
      <point x="1135.0" y="1513.0"/>
      <point x="1426.0" y="1329.0"/>
      <point x="1418" y="1135" type="qcurve" smooth="yes"/>
      <point x="1418" y="1106" type="line"/>
      <point x="1323" y="1106.0" type="line"/>
      <point x="1323.0" y="1134" type="line" smooth="yes"/>
      <point x="1323" y="1285"/>
      <point x="1087" y="1420"/>
      <point x="764.0" y="1420" type="qcurve" smooth="yes"/>
      <point x="752.0" y="1420" type="line" smooth="yes"/>
      <point x="472.0" y="1420.0"/>
      <point x="215.0" y="1275.0"/>
      <point x="215.0" y="1168" type="qcurve" smooth="yes"/>
      <point x="215.0" y="1132" type="line" smooth="yes"/>
      <point x="215.0" y="1045"/>
      <point x="407" y="887"/>
      <point x="800" y="850" type="qcurve" smooth="yes"/>
      <point x="1214" y="812"/>
      <point x="1464.0" y="588.0"/>
      <point x="1464.0" y="418.0" type="qcurve" smooth="yes"/>
      <point x="1464.0" y="401.0" type="line" smooth="yes"/>
      <point x="1464.0" y="226"/>
      <point x="1145.0" y="-18.0"/>
      <point x="792" y="-18.0" type="qcurve" smooth="yes"/>
      <point x="788" y="-18.0" type="line" smooth="yes"/>
      <point x="409.0" y="-18"/>
      <point x="87" y="211.0"/>
      <point x="87" y="386.0" type="qcurve" smooth="yes"/>
      <point x="87" y="434.0" type="line"/>
      <point x="181" y="434.0" type="line"/>
      <point x="181.0" y="385" type="line" smooth="yes"/>
      <point x="181" y="238"/>
      <point x="453.0" y="73"/>
      <point x="782.0" y="73" type="qcurve" smooth="yes"/>
      <point x="789.0" y="73" type="line" smooth="yes"/>
      <point x="1122.0" y="73.0"/>
      <point x="1374.0" y="275.0"/>
      <point x="1374.0" y="400" type="qcurve" smooth="yes"/>
    </contour>
  </outline>
</glyph>
<glyph name="T" format="2">
  <advance width="1614"/>
  <unicode hex="0054"/>
  <outline>
    <contour>
      <point x="762" y="0" type="line"/>
      <point x="762" y="1460" type="line"/>
      <point x="852" y="1460" type="line"/>
      <point x="852" y="0" type="line"/>
    </contour>
    <contour>
      <point x="1602" y="1411" type="line"/>
      <point x="12" y="1411" type="line"/>
      <point x="12" y="1500" type="line"/>
      <point x="1602" y="1500" type="line"/>
    </contour>
  </outline>
</glyph>
<glyph name="U" format="2">
  <advance width="1828"/>
  <unicode hex="0055"/>
  <outline>
    <contour>
      <point x="188" y="1500" type="line"/>
      <point x="278" y="1500" type="line"/>
      <point x="278" y="594" type="line" smooth="yes"/>
      <point x="278.0" y="336"/>
      <point x="627" y="72"/>
      <point x="917" y="72" type="qcurve" smooth="yes"/>
      <point x="925" y="72" type="line" smooth="yes"/>
      <point x="1241" y="72"/>
      <point x="1552.0" y="339.0"/>
      <point x="1552" y="594" type="qcurve" smooth="yes"/>
      <point x="1552" y="1500" type="line"/>
      <point x="1640" y="1500" type="line"/>
      <point x="1636" y="588" type="line" smooth="yes"/>
      <point x="1635" y="296"/>
      <point x="1257.0" y="-19.0"/>
      <point x="928" y="-19" type="qcurve" smooth="yes"/>
      <point x="920" y="-19" type="line" smooth="yes"/>
      <point x="591" y="-19"/>
      <point x="188" y="292"/>
      <point x="188" y="614" type="qcurve" smooth="yes"/>
    </contour>
  </outline>
</glyph>
<glyph name="V" format="2">
  <advance width="1500"/>
  <unicode hex="0056"/>
  <outline>
    <contour>
      <point x="695" y="0" type="line"/>
      <point x="-20" y="1500" type="line"/>
      <point x="80" y="1500" type="line"/>
      <point x="764" y="89" type="line"/>
      <point x="1423" y="1500" type="line"/>
      <point x="1530" y="1500" type="line"/>
      <point x="815" y="0" type="line"/>
    </contour>
  </outline>
</glyph>
<glyph name="W" format="2">
  <advance width="2260"/>
  <unicode hex="0057"/>
  <outline>
    <contour>
      <point x="565" y="0" type="line"/>
      <point x="10" y="1500" type="line"/>
      <point x="102" y="1500" type="line"/>
      <point x="603" y="150" type="line"/>
      <point x="1093" y="1500" type="line"/>
      <point x="1179" y="1500" type="line"/>
      <point x="1672" y="150" type="line"/>
      <point x="2165" y="1500" type="line"/>
      <point x="2250" y="1500" type="line"/>
      <point x="1705" y="0" type="line"/>
      <point x="1635" y="0" type="line"/>
      <point x="1134" y="1385" type="line"/>
      <point x="1130" y="1385" type="line"/>
      <point x="635" y="0" type="line"/>
    </contour>
  </outline>
</glyph>
<glyph name="X" format="2">
  <advance width="1486"/>
  <unicode hex="0058"/>
  <outline>
    <contour>
      <point x="-33" y="0" type="line"/>
      <point x="1388" y="1500" type="line"/>
      <point x="1509" y="1500" type="line"/>
      <point x="88" y="0" type="line"/>
    </contour>
    <contour>
      <point x="1392" y="0" type="line"/>
      <point x="-12" y="1500" type="line"/>
      <point x="115" y="1500" type="line"/>
      <point x="1519" y="0" type="line"/>
    </contour>
  </outline>
</glyph>
<glyph name="Y" format="2">
  <advance width="1650"/>
  <unicode hex="0059"/>
  <outline>
    <contour>
      <point x="780" y="0" type="line"/>
      <point x="780" y="520" type="line"/>
      <point x="870" y="520" type="line"/>
      <point x="870" y="0" type="line"/>
    </contour>
    <contour>
      <point x="785" y="460" type="line"/>
      <point x="-50" y="1500" type="line"/>
      <point x="67" y="1500" type="line"/>
      <point x="826" y="551" type="line"/>
      <point x="1588" y="1500" type="line"/>
      <point x="1700" y="1500" type="line"/>
      <point x="863" y="460" type="line"/>
    </contour>
  </outline>
</glyph>
<glyph name="Z" format="2">
  <advance width="1473"/>
  <unicode hex="005A"/>
  <outline>
    <contour>
      <point x="1460" y="0" type="line"/>
      <point x="4" y="0" type="line"/>
      <point x="-1" y="89" type="line"/>
      <point x="1308" y="1411" type="line"/>
      <point x="34" y="1411" type="line"/>
      <point x="34" y="1500" type="line"/>
      <point x="1440" y="1500" type="line"/>
      <point x="1440" y="1416" type="line"/>
      <point x="122" y="89" type="line"/>
      <point x="1460" y="89" type="line"/>
    </contour>
  </outline>
</glyph>
<glyph name="bracketleft" format="2">
  <advance width="858"/>
  <unicode hex="005B"/>
  <outline>
    <contour>
      <point x="296" y="-280" type="line"/>
      <point x="296" y="1500" type="line"/>
      <point x="380" y="1500" type="line"/>
      <point x="380" y="-280" type="line"/>
    </contour>
    <contour>
      <point x="846" y="-280" type="line"/>
      <point x="339" y="-280" type="line"/>
      <point x="339" y="-200" type="line"/>
      <point x="846" y="-200" type="line"/>
    </contour>
    <contour>
      <point x="846" y="1420" type="line"/>
      <point x="334" y="1420" type="line"/>
      <point x="334" y="1500" type="line"/>
      <point x="846" y="1500" type="line"/>
    </contour>
  </outline>
</glyph>
<glyph name="backslash" format="2">
  <advance width="892"/>
  <unicode hex="005C"/>
  <outline>
    <contour>
      <point x="1012" y="0" type="line"/>
      <point x="900" y="0" type="line"/>
      <point x="-120" y="1500" type="line"/>
      <point x="-8" y="1500" type="line"/>
    </contour>
  </outline>
</glyph>
<glyph name="bracketright" format="2">
  <advance width="858"/>
  <unicode hex="005D"/>
  <outline>
    <contour>
      <point x="562" y="-280" type="line"/>
      <point x="478" y="-280" type="line"/>
      <point x="478" y="1500" type="line"/>
      <point x="562" y="1500" type="line"/>
    </contour>
    <contour>
      <point x="12" y="-280" type="line"/>
      <point x="12" y="-200" type="line"/>
      <point x="519" y="-200" type="line"/>
      <point x="519" y="-280" type="line"/>
    </contour>
    <contour>
      <point x="12" y="1420" type="line"/>
      <point x="12" y="1500" type="line"/>
      <point x="524" y="1500" type="line"/>
      <point x="524" y="1420" type="line"/>
    </contour>
  </outline>
</glyph>
<glyph name="asciicircum" format="2">
  <advance width="1236"/>
  <unicode hex="005E"/>
  <outline>
    <contour>
      <point x="650.0" y="1513.0" type="line"/>
      <point x="1206.0" y="833.0" type="line"/>
      <point x="1086.0" y="833.0" type="line"/>
      <point x="616.0" y="1400.0" type="line"/>
      <point x="151.0" y="833.0" type="line"/>
      <point x="30.0" y="833.0" type="line"/>
      <point x="580.0" y="1513.0" type="line"/>
    </contour>
  </outline>
</glyph>
<glyph name="grave" format="2">
  <advance width="1200"/>
  <unicode hex="0060"/>
  <outline>
    <contour>
      <point x="545.0" y="1389.0" type="line"/>
      <point x="950.0" y="1058.0" type="line"/>
      <point x="788.0" y="1058.0" type="line"/>
      <point x="315.0" y="1389.0" type="line"/>
    </contour>
  </outline>
</glyph>
<glyph name="a" format="2">
  <advance width="1313"/>
  <unicode hex="0061"/>
  <outline>
    <contour>
      <point x="148" y="902" type="line"/>
      <point x="169" y="915.0"/>
      <point x="441" y="1014.0"/>
      <point x="641" y="1014.0" type="qcurve" smooth="yes"/>
      <point x="886" y="1014"/>
      <point x="1137.0" y="792.0"/>
      <point x="1139" y="590" type="qcurve" smooth="yes"/>
      <point x="1140" y="0" type="line"/>
      <point x="1053" y="0" type="line"/>
      <point x="1053.0" y="584" type="line" smooth="yes"/>
      <point x="1053.0" y="764.0"/>
      <point x="845" y="939"/>
      <point x="631" y="939.0" type="qcurve" smooth="yes"/>
      <point x="459" y="939.0"/>
      <point x="194" y="852"/>
      <point x="155" y="823" type="qcurve"/>
    </contour>
    <contour>
      <point x="1066" y="126" type="line"/>
      <point x="1046" y="86"/>
      <point x="738" y="-25"/>
      <point x="558" y="-25" type="qcurve" smooth="yes"/>
      <point x="324" y="-25"/>
      <point x="55" y="150"/>
      <point x="55" y="309" type="qcurve" smooth="yes"/>
      <point x="55" y="469"/>
      <point x="316.0" y="650.0"/>
      <point x="595" y="650.0" type="qcurve" smooth="yes"/>
      <point x="750" y="650"/>
      <point x="1027" y="609"/>
      <point x="1069" y="597" type="qcurve"/>
      <point x="1069" y="514" type="line"/>
      <point x="1038.0" y="526"/>
      <point x="706" y="574"/>
      <point x="603" y="574" type="qcurve" smooth="yes"/>
      <point x="391" y="574"/>
      <point x="150" y="445"/>
      <point x="150" y="312" type="qcurve" smooth="yes"/>
      <point x="150" y="172.0"/>
      <point x="373" y="43.0"/>
      <point x="599" y="43.0" type="qcurve" smooth="yes"/>
      <point x="753" y="43.0"/>
      <point x="1041" y="161"/>
      <point x="1066" y="199" type="qcurve"/>
    </contour>
  </outline>
</glyph>
<glyph name="b" format="2">
  <advance width="1521"/>
  <unicode hex="0062"/>
  <outline>
    <contour>
      <point x="182" y="0" type="line"/>
      <point x="182" y="1500" type="line"/>
      <point x="268" y="1500" type="line"/>
      <point x="268" y="0" type="line"/>
    </contour>
    <contour>
      <point x="199.0" y="508" type="line" smooth="yes"/>
      <point x="199" y="756.0"/>
      <point x="540" y="1012"/>
      <point x="783" y="1012" type="qcurve" smooth="yes"/>
      <point x="795" y="1012" type="line" smooth="yes"/>
      <point x="1097" y="1012"/>
      <point x="1449" y="750"/>
      <point x="1449" y="503" type="qcurve" smooth="yes"/>
      <point x="1449" y="486" type="line" smooth="yes"/>
      <point x="1449" y="234"/>
      <point x="1095.0" y="-27.0"/>
      <point x="827" y="-27" type="qcurve" smooth="yes"/>
      <point x="811" y="-27.0" type="line" smooth="yes"/>
      <point x="543" y="-27"/>
      <point x="199" y="211"/>
      <point x="199" y="493" type="qcurve" smooth="yes"/>
    </contour>
    <contour>
      <point x="269" y="515" type="qcurve" smooth="yes"/>
      <point x="269" y="486" type="line" smooth="yes"/>
      <point x="269.0" y="240.0"/>
      <point x="576" y="57"/>
      <point x="810" y="57.0" type="qcurve" smooth="yes"/>
      <point x="822" y="57.0" type="line" smooth="yes"/>
      <point x="1051.0" y="57.0"/>
      <point x="1359" y="274"/>
      <point x="1359" y="489" type="qcurve" smooth="yes"/>
      <point x="1359" y="500" type="line" smooth="yes"/>
      <point x="1359" y="715"/>
      <point x="1069" y="928"/>
      <point x="799" y="928" type="qcurve" smooth="yes"/>
      <point x="787" y="928" type="line" smooth="yes"/>
      <point x="576" y="928"/>
      <point x="269.0" y="722"/>
    </contour>
  </outline>
</glyph>
<glyph name="c" format="2">
  <advance width="1377"/>
  <unicode hex="0063"/>
  <outline>
    <contour>
      <point x="1351" y="352" type="line"/>
      <point x="1347" y="327" type="line" smooth="yes"/>
      <point x="1322" y="175"/>
      <point x="1037.0" y="-25.0"/>
      <point x="745" y="-25" type="qcurve" smooth="yes"/>
      <point x="737" y="-25" type="line" smooth="yes"/>
      <point x="423.0" y="-25"/>
      <point x="72" y="230.0"/>
      <point x="72" y="498" type="qcurve" smooth="yes"/>
      <point x="72" y="481" type="line" smooth="yes"/>
      <point x="72" y="734.0"/>
      <point x="432.0" y="1011.0"/>
      <point x="732" y="1011.0" type="qcurve" smooth="yes"/>
      <point x="737" y="1011.0" type="line" smooth="yes"/>
      <point x="1038.0" y="1011.0"/>
      <point x="1332" y="798"/>
      <point x="1343" y="636" type="qcurve" smooth="yes"/>
      <point x="1345" y="610" type="line"/>
      <point x="1258" y="611" type="line"/>
      <point x="1254" y="638" type="line" smooth="yes"/>
      <point x="1234" y="766"/>
      <point x="1027" y="922"/>
      <point x="750" y="922" type="qcurve" smooth="yes"/>
      <point x="737" y="922.0" type="line" smooth="yes"/>
      <point x="430" y="922"/>
      <point x="163" y="695.0"/>
      <point x="163" y="492" type="qcurve" smooth="yes"/>
      <point x="163" y="479" type="line" smooth="yes"/>
      <point x="163" y="287.0"/>
      <point x="432.0" y="65"/>
      <point x="736" y="65" type="qcurve" smooth="yes"/>
      <point x="750" y="65" type="line" smooth="yes"/>
      <point x="1017" y="65"/>
      <point x="1242" y="207"/>
      <point x="1267" y="325" type="qcurve" smooth="yes"/>
      <point x="1274" y="354" type="line"/>
    </contour>
  </outline>
</glyph>
<glyph name="d" format="2">
  <advance width="1521"/>
  <unicode hex="0064"/>
  <outline>
    <contour>
      <point x="1339" y="0" type="line"/>
      <point x="1253" y="0" type="line"/>
      <point x="1253" y="1500" type="line"/>
      <point x="1339" y="1500" type="line"/>
    </contour>
    <contour>
      <point x="1322.0" y="508.0" type="qcurve" smooth="yes"/>
      <point x="1322" y="493" type="line" smooth="yes"/>
      <point x="1322" y="211"/>
      <point x="978" y="-27"/>
      <point x="710.0" y="-27.0" type="qcurve" smooth="yes"/>
      <point x="694" y="-27" type="line" smooth="yes"/>
      <point x="426.0" y="-27.0"/>
      <point x="72" y="234"/>
      <point x="72" y="486" type="qcurve" smooth="yes"/>
      <point x="72" y="503" type="line" smooth="yes"/>
      <point x="72" y="750"/>
      <point x="424" y="1012"/>
      <point x="726" y="1012" type="qcurve" smooth="yes"/>
      <point x="738" y="1012" type="line" smooth="yes"/>
      <point x="981" y="1012"/>
      <point x="1322.0" y="756.0"/>
    </contour>
    <contour>
      <point x="1252" y="515" type="line" smooth="yes"/>
      <point x="1252.0" y="722.0"/>
      <point x="945" y="928"/>
      <point x="734" y="928" type="qcurve" smooth="yes"/>
      <point x="722" y="928" type="line" smooth="yes"/>
      <point x="452" y="928"/>
      <point x="162" y="715"/>
      <point x="162" y="500" type="qcurve" smooth="yes"/>
      <point x="162" y="489" type="line" smooth="yes"/>
      <point x="162" y="274"/>
      <point x="470.0" y="57.0"/>
      <point x="699.0" y="57.0" type="qcurve" smooth="yes"/>
      <point x="711.0" y="57.0" type="line" smooth="yes"/>
      <point x="945" y="57"/>
      <point x="1252.0" y="240.0"/>
      <point x="1252" y="486" type="qcurve" smooth="yes"/>
    </contour>
  </outline>
</glyph>
<glyph name="f" format="2">
  <advance width="848"/>
  <unicode hex="0066"/>
  <outline>
    <contour>
      <point x="840" y="901" type="line"/>
      <point x="60" y="901" type="line"/>
      <point x="60" y="980" type="line"/>
      <point x="840" y="980" type="line"/>
    </contour>
    <contour>
      <point x="437" y="1258" type="qcurve" smooth="yes"/>
      <point x="437" y="0" type="line"/>
      <point x="351" y="0" type="line"/>
      <point x="351" y="1271" type="line" smooth="yes"/>
      <point x="351.0" y="1416.0"/>
      <point x="509" y="1553"/>
      <point x="616" y="1553.0" type="qcurve" smooth="yes"/>
      <point x="689" y="1553.0"/>
      <point x="837.0" y="1524.0"/>
      <point x="858" y="1512" type="qcurve"/>
      <point x="860" y="1424" type="line"/>
      <point x="840.0" y="1434.0"/>
      <point x="695" y="1472"/>
      <point x="628" y="1472.0" type="qcurve" smooth="yes"/>
      <point x="553" y="1472"/>
      <point x="437.0" y="1368.0"/>
    </contour>
  </outline>
</glyph>
<glyph name="g" format="2">
  <advance width="1521"/>
  <unicode hex="0067"/>
  <outline>
    <contour>
      <point x="1286" y="492" type="qcurve" smooth="yes"/>
      <point x="1286" y="477" type="line" smooth="yes"/>
      <point x="1286.0" y="215.0"/>
      <point x="950" y="-17"/>
      <point x="703" y="-17" type="qcurve" smooth="yes"/>
      <point x="693" y="-17" type="line" smooth="yes"/>
      <point x="377" y="-17"/>
      <point x="56" y="264.0"/>
      <point x="56" y="498" type="qcurve" smooth="yes"/>
      <point x="56" y="501" type="line" smooth="yes"/>
      <point x="56" y="722"/>
      <point x="407" y="1012"/>
      <point x="690" y="1012" type="qcurve" smooth="yes"/>
      <point x="701" y="1012" type="line" smooth="yes"/>
      <point x="951" y="1012"/>
      <point x="1286" y="781"/>
    </contour>
    <contour>
      <point x="1238" y="499.0" type="line" smooth="yes"/>
      <point x="1238" y="715.0"/>
      <point x="930" y="931.0"/>
      <point x="697" y="931.0" type="qcurve" smooth="yes"/>
      <point x="685" y="931.0" type="line" smooth="yes"/>
      <point x="433" y="931.0"/>
      <point x="136" y="709.0"/>
      <point x="136" y="504.0" type="qcurve" smooth="yes"/>
      <point x="136" y="495.0" type="line" smooth="yes"/>
      <point x="136" y="287.0"/>
      <point x="424" y="65.0"/>
      <point x="675" y="65.0" type="qcurve" smooth="yes"/>
      <point x="687" y="65.0" type="line" smooth="yes"/>
      <point x="910" y="65.0"/>
      <point x="1238.0" y="246.0"/>
      <point x="1238" y="470.0" type="qcurve" smooth="yes"/>
    </contour>
    <contour>
      <point x="393" y="-420.0" type="line"/>
      <point x="391" y="-416.0"/>
      <point x="551" y="-433.0"/>
      <point x="610" y="-433.0" type="qcurve" smooth="yes"/>
      <point x="897.0" y="-433.0"/>
      <point x="1256.0" y="-215.0"/>
      <point x="1256" y="36.0" type="qcurve" smooth="yes"/>
      <point x="1256" y="1000" type="line"/>
      <point x="1336" y="1000" type="line"/>
      <point x="1336.0" y="84.0" type="line" smooth="yes"/>
      <point x="1336.0" y="-249.0"/>
      <point x="928" y="-503.0"/>
      <point x="615" y="-503" type="qcurve" smooth="yes"/>
      <point x="506" y="-503.0"/>
      <point x="393" y="-492.0"/>
      <point x="384" y="-493.0" type="qcurve"/>
    </contour>
  </outline>
</glyph>
<glyph name="i" format="2">
  <advance width="679"/>
  <unicode hex="0069"/>
  <outline>
    <contour>
      <point x="353" y="0" type="line"/>
      <point x="353" y="974" type="line"/>
      <point x="438" y="980" type="line"/>
      <point x="438" y="0" type="line"/>
    </contour>
    <contour>
      <point x="395" y="1240" type="line" smooth="yes"/>
      <point x="429" y="1240"/>
      <point x="468" y="1279"/>
      <point x="468" y="1312" type="qcurve" smooth="yes"/>
      <point x="468" y="1317" type="line" smooth="yes"/>
      <point x="468" y="1349"/>
      <point x="432.0" y="1390.0"/>
      <point x="397" y="1390" type="qcurve" smooth="yes"/>
      <point x="394" y="1390" type="line" smooth="yes"/>
      <point x="361" y="1390"/>
      <point x="324" y="1349"/>
      <point x="324" y="1317" type="qcurve" smooth="yes"/>
      <point x="324" y="1312" type="line" smooth="yes"/>
      <point x="324" y="1279"/>
      <point x="359.0" y="1240.0"/>
      <point x="392" y="1240" type="qcurve" smooth="yes"/>
    </contour>
    <contour>
      <point x="421" y="895" type="line"/>
      <point x="71" y="876" type="line"/>
      <point x="71" y="960" type="line"/>
      <point x="421" y="980" type="line"/>
    </contour>
  </outline>
</glyph>
<glyph name="j" format="2">
  <advance width="690"/>
  <unicode hex="006A"/>
  <outline>
    <contour>
      <point x="222" y="-9" type="line" smooth="yes"/>
      <point x="222" y="-231"/>
      <point x="-22" y="-500"/>
      <point x="-245" y="-500" type="qcurve" smooth="yes"/>
      <point x="-307" y="-500"/>
      <point x="-389" y="-490"/>
      <point x="-418" y="-482" type="qcurve"/>
      <point x="-423" y="-398" type="line"/>
      <point x="-394" y="-404"/>
      <point x="-293" y="-420"/>
      <point x="-256" y="-420" type="qcurve" smooth="yes"/>
      <point x="-77" y="-420"/>
      <point x="137" y="-209"/>
      <point x="137" y="24" type="qcurve" smooth="yes"/>
      <point x="137" y="980" type="line"/>
      <point x="222" y="980" type="line"/>
    </contour>
    <contour>
      <point x="179" y="1240" type="line" smooth="yes"/>
      <point x="213" y="1240"/>
      <point x="252" y="1279"/>
      <point x="252" y="1312" type="qcurve" smooth="yes"/>
      <point x="252" y="1317" type="line" smooth="yes"/>
      <point x="252" y="1349"/>
      <point x="214" y="1390"/>
      <point x="179" y="1390" type="qcurve" smooth="yes"/>
      <point x="178" y="1390" type="line" smooth="yes"/>
      <point x="145" y="1390"/>
      <point x="108" y="1349"/>
      <point x="108" y="1317" type="qcurve" smooth="yes"/>
      <point x="108" y="1312" type="line" smooth="yes"/>
      <point x="108" y="1279"/>
      <point x="145" y="1240"/>
      <point x="178" y="1240" type="qcurve" smooth="yes"/>
    </contour>
    <contour>
      <point x="224" y="845" type="line"/>
      <point x="214" y="845" type="line"/>
      <point x="214" y="980" type="line"/>
      <point x="224" y="980" type="line"/>
    </contour>
  </outline>
</glyph>
<glyph name="k" format="2">
  <advance width="1442"/>
  <unicode hex="006B"/>
  <outline>
    <contour>
      <point x="169" y="0" type="line"/>
      <point x="169" y="1500" type="line"/>
      <point x="255" y="1500" type="line"/>
      <point x="255" y="0" type="line"/>
    </contour>
    <contour>
      <point x="667" y="614" type="line"/>
      <point x="255" y="318" type="line"/>
      <point x="255" y="413" type="line"/>
      <point x="509" y="589" type="line"/>
      <point x="1097" y="980" type="line"/>
      <point x="1223" y="980" type="line"/>
      <point x="708" y="629" type="line"/>
    </contour>
    <contour>
      <point x="701" y="647" type="line"/>
      <point x="1253" y="0" type="line"/>
      <point x="1134" y="0" type="line"/>
      <point x="635" y="606" type="line"/>
    </contour>
  </outline>
</glyph>
<glyph name="n" format="2">
  <advance width="1364"/>
  <unicode hex="006E"/>
  <outline>
    <contour>
      <point x="182" y="0" type="line"/>
      <point x="182" y="980" type="line"/>
      <point x="268" y="980" type="line"/>
      <point x="268" y="0" type="line"/>
    </contour>
    <contour>
      <point x="233" y="779" type="line"/>
      <point x="278" y="865"/>
      <point x="561" y="1012"/>
      <point x="739" y="1012" type="qcurve" smooth="yes"/>
      <point x="947" y="1012"/>
      <point x="1204.0" y="792.0"/>
      <point x="1204.0" y="577" type="qcurve" smooth="yes"/>
      <point x="1204" y="0" type="line"/>
      <point x="1118" y="0" type="line"/>
      <point x="1118" y="575" type="line" smooth="yes"/>
      <point x="1118.0" y="756.0"/>
      <point x="914" y="938"/>
      <point x="739" y="938.0" type="qcurve" smooth="yes"/>
      <point x="567.0" y="938.0"/>
      <point x="306.0" y="804.0"/>
      <point x="237" y="704" type="qcurve"/>
    </contour>
  </outline>
</glyph>
<glyph name="o" format="2">
  <advance width="1482"/>
  <unicode hex="006F"/>
  <outline>
    <contour>
      <point x="734" y="-26" type="line" smooth="yes"/>
      <point x="431" y="-26"/>
      <point x="72" y="247"/>
      <point x="72" y="487" type="qcurve" smooth="yes"/>
      <point x="72" y="495" type="line" smooth="yes"/>
      <point x="72" y="741"/>
      <point x="435" y="1012.0"/>
      <point x="730" y="1012" type="qcurve" smooth="yes"/>
      <point x="736" y="1012" type="line" smooth="yes"/>
      <point x="1049" y="1012.0"/>
      <point x="1410" y="737"/>
      <point x="1410.0" y="492.0" type="qcurve" smooth="yes"/>
      <point x="1410.0" y="479.0" type="line" smooth="yes"/>
      <point x="1410" y="232"/>
      <point x="1045" y="-26.0"/>
      <point x="740" y="-26" type="qcurve" smooth="yes"/>
    </contour>
    <contour>
      <point x="736" y="61" type="line" smooth="yes"/>
      <point x="1008.0" y="61.0"/>
      <point x="1320" y="289"/>
      <point x="1320.0" y="480" type="qcurve" smooth="yes"/>
      <point x="1320.0" y="489" type="line" smooth="yes"/>
      <point x="1320" y="680"/>
      <point x="1020" y="926.0"/>
      <point x="736" y="926" type="qcurve" smooth="yes"/>
      <point x="730" y="926" type="line" smooth="yes"/>
      <point x="442.0" y="926"/>
      <point x="162" y="689"/>
      <point x="162" y="490" type="qcurve" smooth="yes"/>
      <point x="162.0" y="482" type="line" smooth="yes"/>
      <point x="162" y="290"/>
      <point x="455.0" y="61"/>
      <point x="730" y="61" type="qcurve" smooth="yes"/>
    </contour>
  </outline>
</glyph>
<glyph name="r" format="2">
  <advance width="1015"/>
  <unicode hex="0072"/>
  <outline>
    <contour>
      <point x="192" y="0" type="line"/>
      <point x="192" y="979" type="line"/>
      <point x="282" y="979" type="line"/>
      <point x="282" y="0" type="line"/>
    </contour>
    <contour>
      <point x="222" y="782" type="line"/>
      <point x="329" y="877"/>
      <point x="634" y="1009"/>
      <point x="819" y="1009" type="qcurve" smooth="yes"/>
      <point x="838" y="1009"/>
      <point x="877" y="1008"/>
      <point x="895" y="1007" type="qcurve"/>
      <point x="895" y="920" type="line"/>
      <point x="878" y="921"/>
      <point x="840" y="923"/>
      <point x="819" y="923" type="qcurve" smooth="yes"/>
      <point x="623" y="923"/>
      <point x="370" y="816"/>
      <point x="255" y="728" type="qcurve"/>
    </contour>
  </outline>
</glyph>
<glyph name="v" format="2">
  <advance width="1260"/>
  <unicode hex="0076"/>
  <outline>
    <contour>
      <point x="544" y="0" type="line"/>
      <point x="-30" y="980" type="line"/>
      <point x="72" y="980" type="line"/>
      <point x="600" y="65" type="line"/>
      <point x="1117" y="980" type="line"/>
      <point x="1226" y="980" type="line"/>
      <point x="652" y="0" type="line"/>
    </contour>
  </outline>
</glyph>
<glyph name="x" format="2">
  <advance width="1249"/>
  <unicode hex="0078"/>
  <outline>
    <contour>
      <point x="-10" y="0" type="line"/>
      <point x="1006" y="980" type="line"/>
      <point x="1140" y="980" type="line"/>
      <point x="124" y="0" type="line"/>
    </contour>
    <contour>
      <point x="1034" y="0" type="line"/>
      <point x="41" y="980" type="line"/>
      <point x="176" y="980" type="line"/>
      <point x="1170" y="0" type="line"/>
    </contour>
  </outline>
</glyph>
<glyph name="z" format="2">
  <advance width="1215"/>
  <unicode hex="007A"/>
  <outline>
    <contour>
      <point x="1126" y="0" type="line"/>
      <point x="46" y="0" type="line"/>
      <point x="41" y="85" type="line"/>
      <point x="949" y="905" type="line"/>
      <point x="64" y="905" type="line"/>
      <point x="64" y="980" type="line"/>
      <point x="1106" y="980" type="line"/>
      <point x="1106" y="905" type="line"/>
      <point x="180" y="75" type="line"/>
      <point x="1126" y="75" type="line"/>
    </contour>
  </outline>
</glyph>
<glyph name="braceleft" format="2">
  <advance width="858"/>
  <unicode hex="007B"/>
  <outline>
    <contour>
      <point x="62" y="565" type="line"/>
      <point x="328" y="561"/>
      <point x="423" y="492"/>
      <point x="423.0" y="442.0" type="qcurve" smooth="yes"/>
      <point x="423" y="403"/>
      <point x="366" y="324"/>
      <point x="333" y="283" type="qcurve" smooth="yes"/>
      <point x="300" y="239"/>
      <point x="236" y="111"/>
      <point x="236.0" y="40" type="qcurve" smooth="yes"/>
      <point x="236" y="-102"/>
      <point x="592" y="-298"/>
      <point x="880" y="-305" type="qcurve"/>
      <point x="799.0" y="-160" type="line"/>
      <point x="538.0" y="-153"/>
      <point x="333.0" y="-25"/>
      <point x="333.0" y="30.0" type="qcurve" smooth="yes"/>
      <point x="333" y="90"/>
      <point x="363" y="184"/>
      <point x="399" y="234.0" type="qcurve" smooth="yes"/>
      <point x="439" y="287.0"/>
      <point x="527" y="394"/>
      <point x="527.0" y="474.0" type="qcurve" smooth="yes"/>
      <point x="527" y="516.0"/>
      <point x="401" y="597.0"/>
      <point x="321" y="611.0" type="qcurve"/>
      <point x="415" y="634.0"/>
      <point x="532" y="716.0"/>
      <point x="532.0" y="751" type="qcurve" smooth="yes"/>
      <point x="532" y="826.0"/>
      <point x="445" y="938.0"/>
      <point x="404" y="987.0" type="qcurve" smooth="yes"/>
      <point x="365" y="1033"/>
      <point x="338" y="1130"/>
      <point x="338.0" y="1192" type="qcurve" smooth="yes"/>
      <point x="338" y="1251"/>
      <point x="543" y="1386"/>
      <point x="807" y="1396" type="qcurve"/>
      <point x="880" y="1526" type="line"/>
      <point x="594" y="1517"/>
      <point x="241" y="1332"/>
      <point x="241.0" y="1185" type="qcurve" smooth="yes"/>
      <point x="241" y="1109"/>
      <point x="304" y="980"/>
      <point x="338" y="938" type="qcurve" smooth="yes"/>
      <point x="372" y="896"/>
      <point x="429" y="817"/>
      <point x="429.0" y="780" type="qcurve" smooth="yes"/>
      <point x="429.0" y="732"/>
      <point x="333" y="670"/>
      <point x="62" y="655" type="qcurve"/>
    </contour>
  </outline>
</glyph>
